#!OML:ASF H:\Pregnant\Project 1\Capture day 1\Session 1\femalepreg.ASF
:FULLY-SPECIFIED
:DEGREES
341
root 6.48068 15.4794 21.3632 23.8079 -15.9854 -1.40308
lowerback -11.3981 -4.73598 -14.5578
upperback -4.1382 -4.55754 -5.54665
thorax 2.5985 -2.25407 1.58108
lowerneck -15.6414 -7.16253 -4.43589
upperneck 17.2959 -11.5621 12.5209
head 9.0472 -4.55419 3.47767
rclavicle 6.95746e-014 -6.36111e-015
rhumerus -48.8558 -1.25487 -75.5556
rradius 38.0361
rwrist -4.93273
rhand -1.06756 -15.7993
rfingers 7.12502
rthumb 24.5675 -44.243
lclavicle 6.95746e-014 -6.36111e-015
lhumerus -31.5818 -1.0539 73.8636
lradius 27.643
lwrist 37.6981
lhand -23.4746 -7.26762
lfingers 7.12502
lthumb 2.98476 22.6912
rfemur -40.1068 7.45274 28.1398
rtibia 69.2281
rfoot 4.96763 -0.793669
rtoes -9.27483
lfemur -45.2256 -9.37342 -17.8951
ltibia 32.8332
lfoot -7.39996 3.256
ltoes -20.4522
342
root 6.46535 15.4864 21.441 23.8305 -16.2275 -1.26991
lowerback -11.3279 -4.66901 -14.6684
upperback -4.13915 -4.4704 -5.65698
thorax 2.5446 -2.20906 1.54259
lowerneck -15.872 -7.07354 -4.30583
upperneck 17.195 -11.4507 12.5186
head 9.03723 -4.48756 3.46504
rclavicle 4.05521e-014 6.36111e-015
rhumerus -48.7582 -1.17563 -75.733
rradius 38.8866
rwrist -4.99323
rhand -1.64365 -15.7091
rfingers 7.12502
rthumb 24.0151 -44.2267
lclavicle 4.05521e-014 6.36111e-015
lhumerus -31.5981 -1.86228 74.1968
lradius 27.8241
lwrist 37.5796
lhand -23.6924 -7.78023
lfingers 7.12502
lthumb 2.77438 22.1815
rfemur -41.5743 7.14704 27.9573
rtibia 70.4437
rfoot 4.33665 -1.65165
rtoes -9.68736
lfemur -44.7886 -9.27894 -18.1844
ltibia 32.6293
lfoot -7.57498 3.39788
ltoes -20.4812
343
root 6.4505 15.4923 21.5195 23.9096 -16.4542 -1.21092
lowerback -11.3199 -4.59889 -14.692
upperback -4.14705 -4.37806 -5.73049
thorax 2.51455 -2.16267 1.49352
lowerneck -16.0975 -6.99119 -4.18901
upperneck 17.0994 -11.3435 12.5024
head 9.02835 -4.42514 3.44948
rclavicle 3.81667e-014 -6.36111e-015
rhumerus -48.6379 -1.1051 -75.8949
rradius 39.7318
rwrist -5.12109
rhand -2.411 -15.6323
rfingers 7.12502
rthumb 23.2791 -44.245
lclavicle 3.81667e-014 -6.36111e-015
lhumerus -31.591 -2.60845 74.5204
lradius 27.9573
lwrist 37.3723
lhand -23.8914 -8.04357
lfingers 7.12502
lthumb 2.58226 21.9205
rfemur -43.0447 6.90575 27.8403
rtibia 71.4888
rfoot 3.79337 -2.44684
rtoes -9.93949
lfemur -44.4529 -9.18431 -18.382
ltibia 32.5333
lfoot -7.78695 3.57238
ltoes -20.5204
344
root 6.43613 15.497 21.5986 24.0396 -16.6696 -1.21785
lowerback -11.3682 -4.52339 -14.6369
upperback -4.16198 -4.27759 -5.77317
thorax 2.50484 -2.1133 1.43307
lowerneck -16.3232 -6.9173 -4.07756
upperneck 17.014 -11.245 12.47
head 9.02305 -4.36835 3.42825
rclavicle -6.52014e-014 7.95139e-014
rhumerus -48.4845 -1.0672 -76.0326
rradius 40.5406
rwrist -5.28544
rhand -3.36826 -15.5396
rfingers 7.12502
rthumb 22.3605 -44.2656
lclavicle -6.52014e-014 7.95139e-014
lhumerus -31.5618 -3.31073 74.8374
lradius 28.0462
lwrist 37.1261
lhand -24.0625 -7.98201
lfingers 7.12502
lthumb 2.41696 21.984
rfemur -44.5093 6.7291 27.7767
rtibia 72.3596
rfoot 3.31354 -3.14047
rtoes -10.0961
lfemur -44.2101 -9.09064 -18.4979
ltibia 32.5373
lfoot -8.0271 3.77768
ltoes -20.5522
345
root 6.42196 15.5004 21.6779 24.2021 -16.8767 -1.2715
lowerback -11.4492 -4.44607 -14.534
upperback -4.18466 -4.17521 -5.78302
thorax 2.50468 -2.06324 1.38052
lowerneck -16.5445 -6.85051 -3.98285
upperneck 16.9401 -11.151 12.4231
head 9.02117 -4.31589 3.40449
rclavicle -2.38542e-015 4.77083e-014
rhumerus -48.3105 -1.02703 -76.1533
rradius 41.3385
rwrist -5.4994
rhand -4.46935 -15.4316
rfingers 7.12502
rthumb 21.3032 -44.2808
lclavicle -2.38542e-015 4.77083e-014
lhumerus -31.5143 -3.96695 75.1576
lradius 28.0891
lwrist 36.8803
lhand -24.1957 -7.67545
lfingers 7.12502
lthumb 2.28836 22.292
rfemur -45.9517 6.6128 27.7453
rtibia 73.057
rfoot 2.84278 -3.7122
rtoes -10.2693
lfemur -44.0318 -8.99728 -18.5557
ltibia 32.6165
lfoot -8.28438 4.00631
ltoes -20.548
346
root 6.40783 15.5028 21.757 24.3777 -17.0773 -1.3461
lowerback -11.5414 -4.36739 -14.4101
upperback -4.21543 -4.07292 -5.76836
thorax 2.50298 -2.01282 1.34246
lowerneck -16.7502 -6.79166 -3.9087
upperneck 16.8723 -11.0625 12.369
head 9.01971 -4.26851 3.38135
rclavicle 8.78628e-014 6.04305e-014
rhumerus -48.118 -0.996877 -76.2524
rradius 42.1168
rwrist -5.73851
rhand -5.66479 -15.3243
rfingers 7.12502
rthumb 20.1546 -44.2988
lclavicle 8.78628e-014 6.04305e-014
lhumerus -31.4588 -4.5881 75.4819
lradius 28.0964
lwrist 36.6609
lhand -24.3671 -7.38066
lfingers 7.12502
lthumb 2.12284 22.5885
rfemur -47.3597 6.54495 27.7185
rtibia 73.5877
rfoot 2.35791 -4.14432
rtoes -10.4201
lfemur -43.888 -8.91888 -18.5794
ltibia 32.7375
lfoot -8.54472 4.25832
ltoes -20.5234
347
root 6.39338 15.5046 21.8365 24.5452 -17.2741 -1.41912
lowerback -11.6364 -4.28887 -14.2878
upperback -4.24645 -3.97059 -5.73708
thorax 2.50424 -1.96237 1.32267
lowerneck -16.9523 -6.74137 -3.84883
upperneck 16.8134 -10.9814 12.3044
head 9.02135 -4.22638 3.35616
rclavicle -6.75868e-015 9.54166e-015
rhumerus -47.8939 -0.99065 -76.3273
rradius 42.8552
rwrist -5.98721
rhand -6.9208 -15.2259
rfingers 7.12502
rthumb 18.947 -44.3231
lclavicle -6.75868e-015 9.54166e-015
lhumerus -31.3916 -5.17229 75.8031
lradius 28.0731
lwrist 36.4641
lhand -24.5007 -7.06196
lfingers 7.12502
lthumb 1.99377 22.9085
rfemur -48.7103 6.50561 27.6758
rtibia 73.9556
rfoot 1.82682 -4.42617
rtoes -10.7268
lfemur -43.7364 -8.84563 -18.6046
ltibia 32.8646
lfoot -8.81673 4.51281
ltoes -20.4674
348
root 6.37819 15.5061 21.9153 24.6922 -17.4654 -1.47756
lowerback -11.7087 -4.20947 -14.1861
upperback -4.28062 -3.87005 -5.69486
thorax 2.49191 -1.9118 1.3268
lowerneck -17.1353 -6.70153 -3.80549
upperneck 16.7574 -10.9113 12.2391
head 9.02234 -4.19127 3.3324
rclavicle -4.65156e-014 -7.31528e-014
rhumerus -47.6692 -0.989891 -76.3942
rradius 43.6013
rwrist -6.25491
rhand -8.16818 -15.157
rfingers 7.12502
rthumb 17.747 -44.3672
lclavicle -4.65156e-014 -7.31528e-014
lhumerus -31.3131 -5.7289 76.116
lradius 28.0147
lwrist 36.2807
lhand -24.5402 -6.64482
lfingers 7.12502
lthumb 1.95563 23.326
rfemur -50.002 6.49063 27.6062
rtibia 74.1628
rfoot 1.25811 -4.56728
rtoes -11.053
lfemur -43.5581 -8.80464 -18.6295
ltibia 32.9693
lfoot -9.07451 4.78514
ltoes -20.4275
349
root 6.36204 15.5076 21.994 24.8102 -17.6526 -1.5122
lowerback -11.7605 -4.13107 -14.1132
upperback -4.31224 -3.77139 -5.64471
thorax 2.47343 -1.86168 1.3556
lowerneck -17.3103 -6.67098 -3.77707
upperneck 16.7055 -10.8515 12.1757
head 9.02513 -4.16199 3.31051
rclavicle 4.49253e-014 9.22361e-014
rhumerus -47.435 -0.999698 -76.4503
rradius 44.3445
rwrist -6.53059
rhand -9.37756 -15.0714
rfingers 7.12502
rthumb 16.583 -44.3829
lclavicle 4.49253e-014 9.22361e-014
lhumerus -31.2233 -6.24522 76.4143
lradius 27.9265
lwrist 36.095
lhand -24.5203 -6.25971
lfingers 7.12502
lthumb 1.97485 23.7109
rfemur -51.2249 6.48878 27.4997
rtibia 74.2059
rfoot 0.666513 -4.58298
rtoes -11.4099
lfemur -43.3319 -8.79636 -18.6672
ltibia 33.0332
lfoot -9.32318 5.06852
ltoes -20.4093
350
root 6.34481 15.51 22.0736 24.9084 -17.8335 -1.53397
lowerback -11.8122 -4.05544 -14.0536
upperback -4.3413 -3.67464 -5.586
thorax 2.45918 -1.81262 1.40003
lowerneck -17.47 -6.6473 -3.75734
upperneck 16.6554 -10.7996 12.1123
head 9.02691 -4.13755 3.2893
rclavicle -3.10104e-014 -2.54444e-014
rhumerus -47.1903 -1.01722 -76.4981
rradius 45.0753
rwrist -6.79701
rhand -10.5022 -14.9749
rfingers 7.12502
rthumb 15.5 -44.3736
lclavicle -3.10104e-014 -2.54444e-014
lhumerus -31.1297 -6.7207 76.695
lradius 27.8131
lwrist 35.9227
lhand -24.4707 -5.95398
lfingers 7.12502
lthumb 2.02276 24.0162
rfemur -52.3689 6.49553 27.3669
rtibia 74.083
rfoot 0.0526866 -4.49978
rtoes -11.8628
lfemur -43.0565 -8.81689 -18.7098
ltibia 33.0543
lfoot -9.57747 5.3629
ltoes -20.4521
351
root 6.32652 15.5129 22.1538 24.9849 -18.0069 -1.5411
lowerback -11.853 -3.9844 -14.0107
upperback -4.37004 -3.58423 -5.51792
thorax 2.44149 -1.76631 1.46288
lowerneck -17.619 -6.62704 -3.7475
upperneck 16.6088 -10.7512 12.0521
head 9.02896 -4.11543 3.27062
rclavicle -2.0276e-014 -1.145e-013
rhumerus -46.944 -1.02251 -76.5457
rradius 45.8103
rwrist -7.05929
rhand -11.5397 -14.8778
rfingers 7.12502
rthumb 14.5006 -44.3511
lclavicle -2.0276e-014 -1.145e-013
lhumerus -31.0362 -7.14611 76.9573
lradius 27.6784
lwrist 35.7811
lhand -24.401 -5.74556
lfingers 7.12502
lthumb 2.09004 24.2239
rfemur -53.4362 6.50792 27.2076
rtibia 73.7988
rfoot -0.570476 -4.35975
rtoes -12.369
lfemur -42.7372 -8.86321 -18.7604
ltibia 33.0399
lfoot -9.83061 5.65913
ltoes -20.4924
352
root 6.30734 15.5151 22.2327 25.0444 -18.1643 -1.52924
lowerback -11.8623 -3.92257 -13.9901
upperback -4.40102 -3.5099 -5.44236
thorax 2.40747 -1.7268 1.54492
lowerneck -17.7618 -6.60885 -3.74212
upperneck 16.56 -10.7063 12.0004
head 9.0303 -4.09481 3.25518
rclavicle -4.01545e-014 1.90833e-014
rhumerus -46.6894 -1.01373 -76.6016
rradius 46.5484
rwrist -7.31232
rhand -12.4726 -14.8258
rfingers 7.12502
rthumb 13.6016 -44.3614
lclavicle -4.01545e-014 1.90833e-014
lhumerus -30.9426 -7.50329 77.1894
lradius 27.5364
lwrist 35.6831
lhand -24.3461 -5.70598
lfingers 7.12502
lthumb 2.14314 24.263
rfemur -54.452 6.5207 27.0255
rtibia 73.3713
rfoot -1.16665 -4.20132
rtoes -12.8392
lfemur -42.4038 -8.92343 -18.8231
ltibia 33.0064
lfoot -10.0728 5.93532
ltoes -20.5111
353
root 6.2873 15.5163 22.3106 25.0952 -18.3049 -1.5074
lowerback -11.8512 -3.86967 -13.9796
upperback -4.43701 -3.45084 -5.3579
thorax 2.35974 -1.69377 1.64068
lowerneck -17.8875 -6.58986 -3.73732
upperneck 16.5049 -10.6604 11.952
head 9.02656 -4.07442 3.24156
rclavicle 3.57812e-015 6.36111e-014
rhumerus -46.4322 -0.980671 -76.6691
rradius 47.2857
rwrist -7.55984
rhand -13.3074 -14.7904
rfingers 7.12502
rthumb 12.7968 -44.3782
lclavicle 3.57812e-015 6.36111e-014
lhumerus -30.8577 -7.80634 77.3971
lradius 27.3971
lwrist 35.6501
lhand -24.3086 -5.76338
lfingers 7.12502
lthumb 2.17931 24.2052
rfemur -55.4142 6.53417 26.8285
rtibia 72.8067
rfoot -1.74701 -4.05873
rtoes -13.3
lfemur -42.0669 -8.97718 -18.8976
ltibia 32.9647
lfoot -10.3033 6.17937
ltoes -20.4859
354
root 6.26641 15.5158 22.3861 25.1371 -18.4246 -1.47025
lowerback -11.806 -3.82444 -13.9832
upperback -4.47891 -3.40756 -5.27002
thorax 2.28968 -1.66701 1.74712
lowerneck -18.0009 -6.57221 -3.72912
upperneck 16.4439 -10.6181 11.9095
head 9.01911 -4.05571 3.22911
rclavicle -1.55052e-014 -1.27222e-014
rhumerus -46.1716 -0.938139 -76.7498
rradius 48.016
rwrist -7.78602
rhand -14.0148 -14.7744
rfingers 7.12502
rthumb 12.1149 -44.4037
lclavicle -1.55052e-014 -1.27222e-014
lhumerus -30.7829 -8.0722 77.5793
lradius 27.2729
lwrist 35.6855
lhand -24.2795 -5.86157
lfingers 7.12502
lthumb 2.20742 24.1068
rfemur -56.3328 6.54775 26.613
rtibia 72.1139
rfoot -2.31196 -3.9693
rtoes -13.6715
lfemur -41.7394 -9.03357 -18.9804
ltibia 32.9181
lfoot -10.5139 6.39007
ltoes -20.3876
355
root 6.24456 15.5151 22.4618 25.1749 -18.5303 -1.42745
lowerback -11.7622 -3.7852 -13.9834
upperback -4.51903 -3.37199 -5.17874
thorax 2.22322 -1.64419 1.85378
lowerneck -18.1166 -6.55521 -3.71279
upperneck 16.3832 -10.579 11.8664
head 9.01201 -4.03795 3.21464
rclavicle 1.36764e-013 3.49861e-014
rhumerus -45.9005 -0.880665 -76.8459
rradius 48.7318
rwrist -7.99939
rhand -14.6086 -14.7633
rfingers 7.12502
rthumb 11.5422 -44.4255
lclavicle 1.36764e-013 3.49861e-014
lhumerus -30.7217 -8.30447 77.7384
lradius 27.1769
lwrist 35.7821
lhand -24.196 -5.8065
lfingers 7.12502
lthumb 2.28811 24.161
rfemur -57.1846 6.55857 26.3847
rtibia 71.284
rfoot -2.87408 -3.94824
rtoes -14.0486
lfemur -41.4016 -9.0681 -19.0783
ltibia 32.8557
lfoot -10.7276 6.55983
ltoes -20.2629
